<svg width="23" height="23" viewBox="0 0 23 23" fill="none" xmlns="http://www.w3.org/2000/svg">
<g id="Sports / Fitness / fitness-dumbbell-lift">
<g id="Group">
<g id="Regular">
<path id="Rectangle-path" fill-rule="evenodd" clip-rule="evenodd" d="M3.69287 6H7.84672V8.76923H3.69287V6Z" stroke="#3D3D3D" stroke-width="1.5" stroke-linecap="round" stroke-linejoin="round"/>
<path id="Shape" d="M7.84665 19.8462L8.99496 15.2548C9.13678 14.6869 8.90618 14.0912 8.41896 13.7668C7.61163 13.2287 7.06325 12.3802 6.90419 11.4231L6.46204 8.76923H7.84665V6C7.84665 5.2353 8.46657 4.61539 9.23127 4.61539H14.7697C15.5344 4.61539 16.1543 5.2353 16.1543 6V10.8462C16.1323 11.7675 15.9627 12.6794 15.6522 13.5471C15.5274 14.0465 15.5274 14.5689 15.6522 15.0683L16.8467 19.8462" stroke="#3D3D3D" stroke-width="1.5" stroke-linecap="round" stroke-linejoin="round"/>
<path id="Shape_2" fill-rule="evenodd" clip-rule="evenodd" d="M2.3082 2.53846C1.5435 2.53846 0.923584 3.15838 0.923584 3.92308V11.5385C0.923584 12.3032 1.5435 12.9231 2.3082 12.9231C3.0729 12.9231 3.69281 12.3032 3.69281 11.5385V3.92308C3.69281 3.15838 3.0729 2.53846 2.3082 2.53846Z" stroke="#3D3D3D" stroke-width="1.5" stroke-linecap="round" stroke-linejoin="round"/>
<path id="Shape_3" fill-rule="evenodd" clip-rule="evenodd" d="M20.3082 2.53846C19.5435 2.53846 18.9236 3.15838 18.9236 3.92308V11.5385C18.9236 12.3032 19.5435 12.9231 20.3082 12.9231C21.0729 12.9231 21.6928 12.3032 21.6928 11.5385V3.92308C21.6928 3.15838 21.0729 2.53846 20.3082 2.53846Z" stroke="#3D3D3D" stroke-width="1.5" stroke-linecap="round" stroke-linejoin="round"/>
<path id="Rectangle-path_2" fill-rule="evenodd" clip-rule="evenodd" d="M16.1543 6H18.9235V8.76923H16.1543V6Z" stroke="#3D3D3D" stroke-width="1.5" stroke-linecap="round" stroke-linejoin="round"/>
<path id="Shape_4" d="M10.6158 7.38462V4.61539" stroke="#3D3D3D" stroke-width="1.5" stroke-linecap="round" stroke-linejoin="round"/>
<path id="Shape_5" d="M13.3851 7.38462V4.61539" stroke="#3D3D3D" stroke-width="1.5" stroke-linecap="round" stroke-linejoin="round"/>
</g>
</g>
</g>
</svg>
