<svg width="22" height="17" viewBox="0 0 22 17" fill="none" xmlns="http://www.w3.org/2000/svg">
<g id="3 User">
<g id="Union">
<path fill-rule="evenodd" clip-rule="evenodd" d="M10.8598 9.138H10.8868C13.4068 9.138 15.4558 7.088 15.4558 4.569C15.4558 2.05 13.4068 0 10.8868 0C8.36776 0 6.31877 2.05 6.31877 4.566C6.31377 5.783 6.78277 6.929 7.64077 7.792C8.49677 8.656 9.63976 9.134 10.8598 9.138ZM7.81877 4.569C7.81877 2.877 9.19477 1.5 10.8868 1.5C12.5788 1.5 13.9558 2.877 13.9558 4.569C13.9558 6.262 12.5788 7.638 10.8868 7.638H10.8618C10.0458 7.635 9.27977 7.314 8.70477 6.735C8.12977 6.156 7.81576 5.389 7.81877 4.569Z" fill="black"/>
<path d="M16.1448 7.50051C16.1978 7.87551 16.5188 8.14651 16.8868 8.14651C16.9208 8.14651 16.9558 8.14451 16.9908 8.13951C18.7658 7.89051 20.1068 6.35051 20.1108 4.55551C20.1108 2.77251 18.8338 1.26851 17.0758 0.979506C16.6648 0.914506 16.2818 1.18851 16.2138 1.59751C16.1468 2.00651 16.4238 2.39251 16.8318 2.45951C17.8628 2.62851 18.6108 3.51051 18.6108 4.55351C18.6088 5.60551 17.8238 6.50751 16.7838 6.65351C16.3728 6.71051 16.0878 7.08951 16.1448 7.50051Z" fill="black"/>
<path d="M19.1604 14.0482C19.2744 14.3472 19.5594 14.5312 19.8614 14.5312C19.9504 14.5312 20.0404 14.5152 20.1284 14.4822C21.5584 13.9372 21.7724 12.9442 21.7724 12.4002C21.7724 11.5092 21.2634 10.3712 18.8404 10.0082C18.4274 9.95515 18.0474 10.2282 17.9864 10.6382C17.9254 11.0492 18.2084 11.4302 18.6174 11.4922C19.7154 11.6562 20.2724 11.9622 20.2724 12.4002C20.2724 12.5372 20.2724 12.8222 19.5944 13.0802C19.2074 13.2272 19.0124 13.6612 19.1604 14.0482Z" fill="black"/>
<path fill-rule="evenodd" clip-rule="evenodd" d="M10.8867 16.7909C9.22773 16.7909 4.17773 16.7909 4.17773 13.5959C4.17773 10.4139 9.22773 10.4139 10.8867 10.4139C12.5457 10.4139 17.5947 10.4139 17.5947 13.6129C17.5947 16.7909 12.7217 16.7909 10.8867 16.7909ZM10.8867 11.9139C8.51073 11.9139 5.67773 12.2059 5.67773 13.5959C5.67773 14.9969 8.51073 15.2909 10.8867 15.2909C13.2627 15.2909 16.0947 14.9999 16.0947 13.6129C16.0947 12.2089 13.2627 11.9139 10.8867 11.9139Z" fill="black"/>
<path d="M4.88572 8.14645C4.85172 8.14645 4.81672 8.14445 4.78172 8.13945C3.00672 7.89045 1.66672 6.35045 1.66272 4.55745C1.66272 2.77245 2.93972 1.26845 4.69772 0.97945C5.11872 0.91345 5.49172 1.19045 5.55972 1.59745C5.62672 2.00645 5.34972 2.39245 4.94172 2.45945C3.91072 2.62845 3.16272 3.51045 3.16272 4.55545C3.16472 5.60545 3.94972 6.50845 4.98872 6.65345C5.39972 6.71045 5.68472 7.08945 5.62772 7.50045C5.57472 7.87545 5.25372 8.14645 4.88572 8.14645Z" fill="black"/>
<path d="M1.64512 14.4822C1.73312 14.5152 1.82312 14.5312 1.91212 14.5312C2.21412 14.5312 2.49912 14.3472 2.61312 14.0482C2.76112 13.6612 2.56612 13.2272 2.17912 13.0802C1.50012 12.8212 1.50012 12.5372 1.50012 12.4002C1.50012 11.9622 2.05712 11.6562 3.15512 11.4922C3.56412 11.4302 3.84712 11.0492 3.78612 10.6382C3.72412 10.2282 3.34612 9.95619 2.93312 10.0082C0.509122 10.3712 0.00012207 11.5102 0.00012207 12.4002C0.00012207 12.9432 0.214122 13.9362 1.64512 14.4822Z" fill="black"/>
</g>
</g>
</svg>
